<svg width="24" height="24" viewBox="0 0 24 24" fill="none" xmlns="http://www.w3.org/2000/svg">
<path d="M8 8V5C8 4.46957 8.21071 3.96086 8.58579 3.58579C8.96086 3.21071 9.46957 3 10 3H14C14.5304 3 15.0391 3.21071 15.4142 3.58579C15.7893 3.96086 16 4.46957 16 5V8H19C19.5304 8 20.0391 8.21071 20.4142 8.58579C20.7893 8.96086 21 9.46957 21 10V19C21 19.5304 20.7893 20.0391 20.4142 20.4142C20.0391 20.7893 19.5304 21 19 21H5C4.46957 21 3.96086 20.7893 3.58579 20.4142C3.21071 20.0391 3 19.5304 3 19V10C3 9.46957 3.21071 8.96086 3.58579 8.58579C3.96086 8.21071 4.46957 8 5 8H8ZM5 10V19H19V10H15.998V13H14V10H10V13H8V10H5ZM10 8H14V5H10V8Z" fill="#4EAB79"/>
</svg>
