<svg width="48" height="48" viewBox="0 0 48 48" fill="none" xmlns="http://www.w3.org/2000/svg">
<path d="M5.81494 15.6397L7.87094 35.9067C8.08203 37.9883 9.05831 39.9174 10.6106 41.3202C12.1629 42.723 14.1807 43.4997 16.2729 43.4997H31.7269C33.8192 43.4997 35.837 42.723 37.3893 41.3202C38.9416 39.9174 39.9179 37.9883 40.1289 35.9067L42.1849 15.6387L5.81494 15.6397Z" stroke="#4EAB79" stroke-linecap="round" stroke-linejoin="round"/>
<path d="M20.3978 34.394C21.1978 35.065 22.0608 35.374 23.9998 35.374H24.9828C25.7515 35.3729 26.4883 35.0666 27.0312 34.5224C27.5741 33.9782 27.8786 33.2407 27.8778 32.472V32.472C27.8786 31.7033 27.5741 30.9658 27.0312 30.4216C26.4883 29.8774 25.7515 29.5711 24.9828 29.57H23.0168C22.6362 29.5696 22.2593 29.4942 21.9078 29.3482C21.5563 29.2021 21.237 28.9882 20.9681 28.7187C20.6993 28.4492 20.4862 28.1294 20.341 27.7776C20.1958 27.4257 20.1213 27.0487 20.1218 26.668V26.668C20.1213 25.8995 20.4259 25.1622 20.9688 24.6182C21.5116 24.0742 22.2483 23.7681 23.0168 23.767H23.9998C25.9398 23.767 26.8028 24.074 27.6018 24.746M15.6328 15.64V12.824C15.6328 10.6052 16.5142 8.47728 18.0832 6.90835C19.6521 5.33942 21.78 4.45801 23.9988 4.45801C26.2176 4.45801 28.3455 5.33942 29.9145 6.90835C31.4834 8.47728 32.3648 10.6052 32.3648 12.824V15.639L15.6328 15.64Z" stroke="#4EAB79" stroke-linecap="round" stroke-linejoin="round"/>
</svg>
