<svg width="48" height="48" viewBox="0 0 48 48" fill="none" xmlns="http://www.w3.org/2000/svg">
<path d="M36.975 13.283H22.753C21.871 13.283 21.156 13.998 21.156 14.88V41.903C21.156 42.785 21.871 43.5 22.753 43.5H36.975C37.857 43.5 38.572 42.785 38.572 41.903V14.88C38.572 13.998 37.857 13.283 36.975 13.283Z" stroke="#4EAB79" stroke-linecap="round" stroke-linejoin="round"/>
<path d="M27.203 26.077V30.047H23.233M21.156 16.677H38.572H21.156ZM21.156 40.106H38.572H21.156ZM21.156 34.717H11.026C10.8162 34.7171 10.6084 34.6759 10.4145 34.5957C10.2207 34.5155 10.0445 34.3979 9.89608 34.2496C9.74768 34.1013 9.62996 33.9252 9.54964 33.7314C9.46932 33.5376 9.42798 33.3298 9.42798 33.12V6.098C9.42785 5.8882 9.46906 5.68042 9.54926 5.48655C9.62945 5.29268 9.74707 5.11651 9.89538 4.9681C10.0437 4.8197 10.2198 4.70198 10.4136 4.62166C10.6074 4.54134 10.8152 4.5 11.025 4.5H25.246C25.4558 4.49987 25.6636 4.54108 25.8574 4.62128C26.0513 4.70148 26.2275 4.81909 26.3759 4.9674C26.5243 5.11571 26.642 5.2918 26.7223 5.48562C26.8026 5.67945 26.844 5.8872 26.844 6.097V13.283L21.156 34.717ZM9.42798 7.894H26.844H9.42798ZM9.42798 31.323H21.156H9.42798ZM27.203 30.047L15.109 17.953L27.203 30.047Z" stroke="#4EAB79" stroke-linecap="round" stroke-linejoin="round"/>
<path d="M15.109 21.923V17.953H19.079" stroke="#4EAB79" stroke-linecap="round" stroke-linejoin="round"/>
</svg>
