<svg width="20" height="20" viewBox="0 0 20 20" fill="none" xmlns="http://www.w3.org/2000/svg">
<path d="M6.18996 2.77C6.32096 2.314 6.73796 2 7.21196 2H12.462C13.187 2 13.699 2.71 13.469 3.398L13.467 3.406L12.205 7H14.769C15.716 7 16.176 8.144 15.536 8.811L15.532 8.815L6.85596 17.673C6.10096 18.455 4.79596 17.733 5.05996 16.677L6.22996 11.998H4.96296C4.79848 11.9981 4.63622 11.9601 4.48896 11.8868C4.3417 11.8136 4.21347 11.7071 4.11438 11.5758C4.01529 11.4445 3.94805 11.292 3.91795 11.1303C3.88786 10.9686 3.89573 10.8021 3.94096 10.644L6.19096 2.771L6.18996 2.77ZM7.21296 3C7.19941 2.99992 7.18622 3.00427 7.17538 3.0124C7.16455 3.02053 7.15667 3.03198 7.15296 3.045L4.90296 10.919C4.89296 10.959 4.92296 10.999 4.96296 10.999H6.86996C6.9458 10.9991 7.02063 11.0164 7.08879 11.0496C7.15696 11.0829 7.21666 11.1312 7.26339 11.1909C7.31012 11.2507 7.34265 11.3202 7.35851 11.3944C7.37437 11.4686 7.37316 11.5454 7.35496 11.619L6.02996 16.919C6.0272 16.9287 6.02618 16.9389 6.02696 16.949C6.02696 16.953 6.02896 16.957 6.02996 16.96C6.03396 16.968 6.04296 16.98 6.05996 16.99C6.07796 17 6.09396 17 6.10196 17C6.1055 16.9993 6.10889 16.9979 6.11196 16.996C6.12094 16.9914 6.12906 16.9853 6.13596 16.978L6.13996 16.974L14.815 8.118C14.824 8.10951 14.83 8.09826 14.832 8.086C14.8336 8.07097 14.8312 8.05577 14.825 8.042C14.8199 8.02861 14.8112 8.01686 14.8 8.008C14.795 8.004 14.787 8 14.77 8H11.5C11.42 8.00006 11.3412 7.98094 11.2701 7.94424C11.1991 7.90755 11.1379 7.85435 11.0917 7.78911C11.0454 7.72387 11.0155 7.6485 11.0044 7.56931C10.9933 7.49012 11.0014 7.40943 11.028 7.334L12.521 3.08C12.5238 3.07068 12.5244 3.06083 12.5227 3.05124C12.521 3.04165 12.5171 3.03259 12.5112 3.0248C12.5054 3.01701 12.4978 3.0107 12.4891 3.00639C12.4803 3.00208 12.4707 2.99989 12.461 3H7.21196H7.21296Z" fill="#4EAB79"/>
</svg>
