<svg width="24" height="24" viewBox="0 0 24 24" fill="none" xmlns="http://www.w3.org/2000/svg">
<path d="M15.05 8.537L18.585 5H14V3H22V11H20V6.414L16.463 9.951C17.6169 11.4635 18.1528 13.358 17.9624 15.2508C17.7719 17.1437 16.8693 18.8934 15.4372 20.1457C14.0051 21.398 12.1507 22.0594 10.2494 21.9958C8.34805 21.9322 6.54193 21.1485 5.19673 19.8033C3.85154 18.4581 3.06781 16.652 3.00422 14.7506C2.94064 12.8493 3.60197 10.9949 4.85429 9.5628C6.10661 8.13075 7.85634 7.2281 9.74917 7.03764C11.642 6.84719 13.5365 7.38315 15.049 8.537H15.05ZM10.5 20C11.9587 20 13.3576 19.4205 14.3891 18.3891C15.4205 17.3576 16 15.9587 16 14.5C16 13.0413 15.4205 11.6424 14.3891 10.6109C13.3576 9.57946 11.9587 9 10.5 9C9.04131 9 7.64236 9.57946 6.61091 10.6109C5.57946 11.6424 5 13.0413 5 14.5C5 15.9587 5.57946 17.3576 6.61091 18.3891C7.64236 19.4205 9.04131 20 10.5 20V20Z" fill="#4EAB79"/>
</svg>
