<svg width="48" height="48" viewBox="0 0 48 48" fill="none" xmlns="http://www.w3.org/2000/svg">
<path d="M12.22 11.24L4.5 18.86V29.28L12 36.76H43.5V11.24H12.22ZM9.63 21.75C10.0141 21.748 10.3902 21.8601 10.7105 22.0721C11.0309 22.284 11.2811 22.5863 11.4294 22.9406C11.5778 23.2949 11.6177 23.6853 11.5439 24.0623C11.4702 24.4393 11.2862 24.7859 11.0153 25.0582C10.7444 25.3305 10.3988 25.5163 10.0222 25.5919C9.64557 25.6676 9.25499 25.6298 8.89992 25.4833C8.54485 25.3367 8.24127 25.0881 8.02766 24.7688C7.81404 24.4496 7.7 24.0741 7.7 23.69V23.69C7.69868 23.4357 7.74763 23.1837 7.84403 22.9483C7.94043 22.713 8.08239 22.4991 8.26174 22.3188C8.44108 22.1385 8.65429 21.9955 8.8891 21.8979C9.12392 21.8002 9.37571 21.75 9.63 21.75Z" stroke="#4EAB79" stroke-linecap="round" stroke-linejoin="round"/>
</svg>
