<svg width="16" height="17" viewBox="0 0 16 17" fill="none" xmlns="http://www.w3.org/2000/svg">
<path d="M4.49734 0.139457C3.45734 -0.124543 2.36734 -0.012543 1.51334 0.465457C0.643338 0.951457 0.033338 1.81246 0.00333801 2.96646C-0.042662 4.76846 0.374338 7.18646 2.03034 10.0245C3.66534 12.8275 5.47034 14.5065 6.96834 15.5055C7.91434 16.1365 8.95934 16.1535 9.85234 15.7415C10.7323 15.3365 11.4463 14.5285 11.8173 13.5255C11.9097 13.276 11.9468 13.0095 11.926 12.7443C11.9053 12.4791 11.8273 12.2215 11.6973 11.9895L10.7433 10.2865C10.4499 9.7628 9.97788 9.3622 9.41348 9.15785C8.84908 8.95349 8.22999 8.95903 7.66934 9.17346L7.00334 9.42746C6.68034 9.55146 6.38334 9.49446 6.21534 9.32846C5.65034 8.77346 5.24634 8.01946 5.06334 7.20846C5.00534 6.95246 5.12334 6.65046 5.40534 6.43746L6.00634 5.98346C6.49221 5.61682 6.82763 5.08552 6.9497 4.4892C7.07176 3.89288 6.97207 3.27252 6.66934 2.74446L5.69734 1.04946C5.56857 0.825052 5.39597 0.628844 5.18981 0.47251C4.98366 0.316177 4.74816 0.202912 4.49734 0.139457ZM1.00334 2.99246C1.02334 2.21946 1.41534 1.66646 2.00134 1.33746C2.60334 1.00146 3.42534 0.898457 4.25134 1.10746C4.49634 1.17046 4.70434 1.32846 4.83034 1.54746L5.80134 3.24146C5.98323 3.55826 6.04327 3.93055 5.97017 4.28847C5.89708 4.64639 5.69588 4.96534 5.40434 5.18546L4.80334 5.63846C4.28334 6.03046 3.92334 6.70346 4.08734 7.42846C4.30934 8.41046 4.80034 9.34046 5.51434 10.0425C6.03634 10.5545 6.78034 10.5845 7.36034 10.3625L8.02634 10.1075C8.36283 9.97866 8.73444 9.97528 9.07321 10.0979C9.41199 10.2206 9.6953 10.4611 9.87134 10.7755L10.8243 12.4785C10.9443 12.6925 10.9643 12.9485 10.8793 13.1785C10.5893 13.9625 10.0443 14.5525 9.43434 14.8335C8.83734 15.1085 8.16234 15.1005 7.52334 14.6735C6.15234 13.7595 4.45334 12.1915 2.89334 9.52046C1.33234 6.84046 0.962338 4.60646 1.00434 2.99246H1.00334ZM15.8163 0.168457C15.8629 0.214902 15.8998 0.270078 15.9251 0.330823C15.9503 0.391568 15.9632 0.45669 15.9632 0.522457C15.9632 0.588224 15.9503 0.653345 15.9251 0.714091C15.8998 0.774836 15.8629 0.830011 15.8163 0.876457L10.8163 5.87646C10.7699 5.92302 10.7147 5.95996 10.654 5.98517C10.5932 6.01038 10.5281 6.02335 10.4623 6.02335C10.3966 6.02335 10.3315 6.01038 10.2707 5.98517C10.21 5.95996 10.1548 5.92302 10.1083 5.87646L8.10834 3.87646C8.01445 3.78257 7.96171 3.65523 7.96171 3.52246C7.96171 3.38968 8.01445 3.26234 8.10834 3.16846C8.20222 3.07457 8.32956 3.02183 8.46234 3.02183C8.59511 3.02183 8.72245 3.07457 8.81634 3.16846L10.4623 4.81546L15.1083 0.168457C15.1548 0.121894 15.21 0.0849508 15.2707 0.0597444C15.3315 0.0345379 15.3966 0.0215631 15.4623 0.0215631C15.5281 0.0215631 15.5932 0.0345379 15.654 0.0597444C15.7147 0.0849508 15.7699 0.121894 15.8163 0.168457Z" fill="#4EAB79"/>
</svg>
