<svg width="16" height="16" viewBox="0 0 16 16" fill="none" xmlns="http://www.w3.org/2000/svg">
<path d="M15.5593 0.145173C15.6285 0.214505 15.6758 0.302647 15.6954 0.398651C15.7149 0.494654 15.7058 0.594287 15.6693 0.685173L9.85025 15.2322C9.79897 15.3603 9.71334 15.4718 9.60279 15.5543C9.49223 15.6369 9.36103 15.6874 9.22364 15.7002C9.08624 15.713 8.94797 15.6877 8.82405 15.627C8.70012 15.5663 8.59535 15.4726 8.52125 15.3562L5.34325 10.3612L0.348254 7.18317C0.231572 7.10916 0.137606 7.00434 0.0767238 6.8803C0.0158421 6.75626 -0.00958824 6.61781 0.0032389 6.48023C0.016066 6.34264 0.066652 6.21128 0.149415 6.10063C0.232178 5.98998 0.3439 5.90434 0.472254 5.85317L15.0193 0.0361732C15.1101 -0.000414535 15.2098 -0.00949426 15.3058 0.0100619C15.4018 0.0296181 15.4899 0.0769483 15.5593 0.146173V0.145173ZM6.34125 10.0692L9.10225 14.4072L13.8353 2.57517L6.34125 10.0692ZM13.1283 1.86817L1.29625 6.60117L5.63525 9.36117L13.1293 1.86817H13.1283Z" fill="#4EAB79"/>
</svg>
