<svg width="24" height="24" viewBox="0 0 24 24" fill="none" xmlns="http://www.w3.org/2000/svg">
<g clip-path="url(#clip0_90_543)">
<path d="M11 15.934C9.11593 15.6786 7.39915 14.7172 6.19685 13.2443C4.99454 11.7714 4.39643 9.8969 4.52346 7.99985C4.65048 6.10279 5.49318 4.32475 6.88112 3.0253C8.26907 1.72585 10.0987 1.00195 12 1C13.9036 0.998168 15.7367 1.72028 17.1277 3.01993C18.5186 4.31959 19.3633 6.09953 19.4905 7.99891C19.6177 9.89829 19.0178 11.775 17.8126 13.2485C16.6073 14.722 14.8869 15.682 13 15.934V18H18V20H13V24H11V20H6V18H11V15.934V15.934ZM12 14C13.4587 14 14.8576 13.4205 15.8891 12.3891C16.9205 11.3576 17.5 9.95869 17.5 8.5C17.5 7.04131 16.9205 5.64237 15.8891 4.61092C14.8576 3.57947 13.4587 3 12 3C10.5413 3 9.14236 3.57947 8.11091 4.61092C7.07946 5.64237 6.5 7.04131 6.5 8.5C6.5 9.95869 7.07946 11.3576 8.11091 12.3891C9.14236 13.4205 10.5413 14 12 14V14Z" fill="#4EAB79"/>
</g>
<defs>
<clipPath id="clip0_90_543">
<rect width="24" height="24" fill="white"/>
</clipPath>
</defs>
</svg>
